<svg width="114" height="120" fill="none" xmlns="http://www.w3.org/2000/svg" viewBox="0 0 114 120"><circle cx="58" cy="63" r="56" fill="#F54E52"/><circle cx="78.768" cy="53.358" r="9.272" fill="#CE262A"/><path d="M96.199 96.007c0 6.554-5.314 11.867-11.868 11.867s-11.867-5.313-11.867-11.867c0-6.555 5.313-11.868 11.867-11.868 6.554 0 11.868 5.313 11.868 11.868z" fill="#CE262A"/><path d="M96.199 96.007c0 6.554-5.314 11.867-11.868 11.867s-11.867-5.313-11.867-11.867c0-6.555 5.313-11.868 11.867-11.868 6.554 0 11.868 5.313 11.868 11.868zM50.212 84.14c0 6.553-5.313 11.867-11.868 11.867-6.554 0-11.867-5.314-11.867-11.868s5.313-11.867 11.867-11.867c6.555 0 11.868 5.313 11.868 11.867z" fill="#CE262A"/><path d="M50.212 84.14c0 6.553-5.313 11.867-11.868 11.867-6.554 0-11.867-5.314-11.867-11.868s5.313-11.867 11.867-11.867c6.555 0 11.868 5.313 11.868 11.867z" fill="#CE262A"/><circle cx="40.199" cy="35.556" r="13.722" fill="#CE262A"/><circle cx="98.334" cy="15.172" r="15" transform="rotate(.662 98.334 15.172)" fill="#CE262A"/><path d="M97.999 44.143l11.79-19.283-23.132-.267L98 44.143z" fill="#CE262A"/><circle cx="98.012" cy="14.427" r="3.985" transform="rotate(.662 98.012 14.427)" fill="#fff"/><path d="M5 47.5c-2.8 2.4-3.833 5.667-4 7v4l1.5 4 2.5-15zM34 115.231V112l14 3.231-1.931 2.154L43.655 119H40.76l-3.862-1.615L34 115.231z" fill="#F54E52" stroke="#F54E52"/></svg>